# xmcd CD database file
#
# Track frame offsets:
#	150
#	15885
#	30805
#	45819
#	61922
#	77048
#	93910
#	109465
#	125084
#	142073
#	158745
#	175518
#	192491
#	209976
#
# Disc length: 2990 seconds
#
# Revision: 0
# Processed by: cddbd v1.5.2PL0 Copyright (c) Steve Scherf et al.
# Submitted via: CDex 1.51
#
DISCID=b30bac0e
DTITLE=Relax Music Voyage - Feng Shui
DYEAR=2011
DGENRE=New Age
TTITLE0=Emozione
TTITLE1=Music Zen Relax
TTITLE2=Profumo D'Oriente
TTITLE3=Il Giardino
TTITLE4=The Mountain Rain
TTITLE5=Lento Cammino
TTITLE6=Nuvole Bianche
TTITLE7=Music Relax Terapy
TTITLE8=For You
TTITLE9=Dream Wind
TTITLE10=Light Violet
TTITLE11=Aquaria
TTITLE12=Tonic
TTITLE13=Le Terme
EXTD=YEAR: 2011
EXTT0=
EXTT1=
EXTT2=
EXTT3=
EXTT4=
EXTT5=
EXTT6=
EXTT7=
EXTT8=
EXTT9=
EXTT10=
EXTT11=
EXTT12=
EXTT13=
PLAYORDER=
